<svg width="31" height="31" viewBox="0 0 31 31" fill="none" xmlns="http://www.w3.org/2000/svg">
<path d="M11.8887 7.27009C13.4514 4.46796 14.2321 3.06689 15.4 3.06689C16.568 3.06689 17.3487 4.46796 18.9113 7.27009L19.3159 7.99529C19.7599 8.79203 19.9819 9.19039 20.3272 9.45309C20.6725 9.71579 21.1042 9.81323 21.9675 10.0081L22.7519 10.1857C25.7859 10.8727 27.3017 11.2155 27.6631 12.3761C28.0232 13.5354 26.9897 14.7453 24.9214 17.1639L24.3861 17.7892C23.799 18.4762 23.5043 18.8203 23.3723 19.2445C23.2403 19.67 23.2847 20.1288 23.3735 21.0452L23.4549 21.8802C23.767 25.1078 23.9236 26.721 22.9789 27.4376C22.0341 28.1554 20.6133 27.5005 17.7742 26.1931L17.0379 25.8552C16.2313 25.4827 15.828 25.2977 15.4 25.2977C14.9721 25.2977 14.5688 25.4827 13.7622 25.8552L13.0271 26.1931C10.1867 27.5005 8.76593 28.1541 7.82243 27.4388C6.87646 26.721 7.0331 25.1078 7.34513 21.8802L7.42653 21.0464C7.51533 20.1288 7.55973 19.67 7.42653 19.2458C7.2958 18.8203 7.00103 18.4762 6.41396 17.7904L5.8787 17.1639C3.8104 14.7466 2.77686 13.5367 3.137 12.3761C3.49836 11.2155 5.01536 10.8714 8.04936 10.1857L8.83376 10.0081C9.69586 9.81323 10.1263 9.71579 10.4729 9.45309C10.8182 9.19039 11.0402 8.79203 11.4842 7.99529L11.8887 7.27009Z" fill="#FFD233"/>
</svg>
